<?xml version="1.0" encoding="UTF-8"?><svg id="Capa_1" xmlns="http://www.w3.org/2000/svg" viewBox="0 0 344.04 471.05"><path d="M151.25,1.33C78.15,10.73,18.75,64.63,3.75,135.23c-6.8,31.7-4.4,59.8,7.6,90.1,14.3,36.4,45.6,87.4,100.8,164.4,13.4,18.7,58,79.7,59.5,81.3,1.2,1.3,74.8-99.6,98.7-135.3,42.4-63.2,64.1-105.6,70.8-138,6.6-31.7,1.8-68-13.3-99.7C296.35,32.13,223.15-7.97,151.25,1.33Zm41.8,32.5c55,8.3,100.5,49.4,114.5,103.4,2.4,9.2,2.6,11.6,2.6,31s-.1,21.6-2.8,32c-1.6,6-3.2,11.4-3.7,11.9-.4,.5-3.8-1.9-7.6-5.4-29.3-26.9-63.9-43.4-102.8-49.1-17.2-2.5-44.1-.9-62.6,3.6-30.3,7.6-63.8,26.3-83.9,46.9-2.4,2.5-4.9,4.6-5.5,4.6-.5,0-2.2-5.1-3.8-11.3-11.6-47.1,1.5-94,35.8-128.3,22-21.8,47.7-34.5,80.5-39.7,5.6-.9,32.6-.6,39.3,.4ZM127.75,172.63c0,.5-1.5,3.6-3.4,6.8s-4.4,9.1-5.7,13.1c-1.8,6.3-2.1,9-1.6,18,.8,16.3,5.9,27.4,17.5,38.3,31,29.1,81,13.5,91.7-28.6,3.7-14.8,.2-31.4-9.7-45.7-2.3-3.2,.3-3.2,10,.1,12.8,4.3,31.4,13.4,43.2,21.2,10.6,6.9,26,18.8,26,20.1,0,1.9-16.3,15.2-29.5,24.1-40.1,27.1-86.8,36-132.6,25.3-16.2-3.7-38.5-13.9-55.9-25.5-12.1-8-29-21.7-29-23.6,0-1.7,18.4-16,29-22.6,10.7-6.6,28.2-15.1,39.1-18.8,9.2-3.2,10.9-3.6,10.9-2.2Z" fill="#612232"/><path d="M169.75,50.63c0,7.6-1,11.1-3.1,11.1-1.4,0-1.9,.9-2.1,4.2-.2,3.6-.7,4.4-2.5,4.6-2.2,.3-2.3,.7-2.3,10.7,0,9.4-.2,10.4-2,11-1.7,.5-2,1.7-2.2,10.8-.2,8.3-.6,10.2-1.8,10.2-.8,0-1.6-1-1.8-2.3-.4-2.8-1.2-2.8-10.8,.3-8.7,2.8-10.4,2.7-10.4-.7,0-1.3-.9-3.1-2-4.1-1.1-.9-2-2.4-2-3.2,0-.9-1.1-3.3-2.5-5.3-1.9-2.8-2.5-5.1-2.6-9.7l-.2-6-.7,6.6c-.4,4.3-1.4,7.6-2.8,9.6-1.2,1.7-2.2,3.9-2.2,4.8s-.9,2.8-2,4.2c-1.6,2.1-2,4.1-2,10.3,0,4.3-.3,9.3-.7,11.1-.8,3.2-.8,3.1-1.3-2.1l-.5-5.5-10.1-.3c-10-.3-10.1-.2-11.2,2.3-.7,1.4-1.2,7.1-1.2,12.8s-.3,11.8-.6,13.7l-.6,3.5h-19.3l-.3,6.3-.3,6.3-7.3,3.6c-6.8,3.3-7.4,3.9-8,7.2-.8,4.7-.8,20.1,0,20.1,.3,0,2.6-1.8,5.1-4,13.7-12,40.7-26.9,60.3-33.4,19.5-6.3,46.8-10.5,61.2-9.3l6.8,.6v-28.8c0-17-.4-29.1-1-29.7-.5-.5-1.1-5.4-1.2-10.9-.3-9.5-.4-10-2.5-10.3-2-.3-2.3-.9-2.3-4.7,0-3.3-.4-4.4-1.8-4.8-2.1-.5-3.2-4.4-3.2-11.3,0-2.4-.4-4.4-1-4.4-.5,0-1,2.2-1,4.9Z" fill="#612232"/><path d="M212.55,75.33c-.5,.4-.8,4.2-.8,8.4v7.6l-6,2.9c-3.4,1.6-6.6,3.5-7.1,4.1-.6,.7-1.3,6-1.6,11.8l-.6,10.5-4.6,.3-4.6,.3-.3,14.7-.3,14.6,5.3,.7c7.6,.9,20.5,3.4,26.2,5.1,2.7,.8,5.1,1.4,5.3,1.4s.3-11.5,.3-25.5c0-21-.2-25.5-1.4-26.2-.8-.5-1.6-2.7-1.8-5.3-.3-3.8-.6-4.5-2.6-4.8-3-.4-3.1-.9-4-12.1-.4-5.1-1-8.9-1.4-8.5Z" fill="#612232"/><path d="M228.25,125.83c-.4,.6-.6,7.3-.6,14.9,.1,7.9-.3,14.8-.8,15.9-.9,1.7-.3,2.1,6.7,4.6,16.9,6.1,38.9,18.5,52.1,29.3l6.6,5.4,.3-6.8c.2-3.8,.1-8.8-.3-11.1-.6-4.1-.7-4.2-5.8-5.2-2.9-.5-6.1-1.1-7.2-1.3-1.8-.3-2-1.2-2.3-8l-.3-7.7-4.3-.6c-2.5-.4-5.8-.4-7.4,0-2.6,.5-3,.3-3.6-1.9-.5-2-1.4-2.7-4.5-3.2l-3.8-.6-.6-11.6c-.4-7.7-1.1-11.8-1.9-12.4-2-1.2-21.6-1-22.3,.3Z" fill="#612232"/></svg>